<?xml version="1.0" standalone="no"?><!DOCTYPE svg PUBLIC "-//W3C//DTD SVG 1.1//EN" "http://www.w3.org/Graphics/SVG/1.1/DTD/svg11.dtd"><svg t="1680490329426" class="icon" viewBox="0 0 1024 1024" version="1.1" xmlns="http://www.w3.org/2000/svg" p-id="2126" xmlns:xlink="http://www.w3.org/1999/xlink" width="200" height="200"><path d="M624.112 547.68c9.76-8.768 15.888-21.52 15.888-35.68s-6.144-26.896-15.888-35.68l-160-144a48 48 0 0 0-64.224 71.36L466.912 464H176a48 48 0 1 0 0 96h290.912l-67.024 60.32a48 48 0 1 0 64.224 71.36l160-144zM896 510.912V142.96a48 48 0 0 0-48-48H608a48 48 0 1 0 0 96h192v640H608a48 48 0 1 0 0 96h240a48 48 0 0 0 48-48V510.992v-0.048-0.032z" fill="#ffffff" p-id="2127"></path></svg>