<?xml version="1.0" standalone="no"?><!DOCTYPE svg PUBLIC "-//W3C//DTD SVG 1.1//EN" "http://www.w3.org/Graphics/SVG/1.1/DTD/svg11.dtd"><svg t="1680490379308" class="icon" viewBox="0 0 1024 1024" version="1.1" xmlns="http://www.w3.org/2000/svg" p-id="3124" xmlns:xlink="http://www.w3.org/1999/xlink" width="200" height="200"><path d="M468.2 466.9V108.7c0-24.7 20-44.8 44.8-44.8s44.8 20 44.8 44.8V467c0 24.7-20 44.8-44.8 44.8s-44.8-20.1-44.8-44.9z m253-351.7c-33.5-17.6-73.8 6-73.8 43.8 0 19.2 11.4 35.9 28.4 44.9C800.3 270 880.2 409.4 857.4 564.3 834.8 717.8 707 840.6 552.8 857.8 343 881.2 164.7 716.9 164.7 511.7c0-134.1 76.2-250.8 187.7-308.9 15.7-8.2 26.3-23.7 26.3-41.4v-4.1c0-37.1-39.5-60-72.4-42.8-157.8 82.3-260.5 255.8-238 450.6 23.6 203.8 189.5 369 393.4 391.6 270.3 30 499.2-180.7 499.2-445-0.1-172.2-97.2-321.6-239.7-396.5z" p-id="3125" fill="#ffffff"></path></svg>