<?xml version="1.0" standalone="no"?><!DOCTYPE svg PUBLIC "-//W3C//DTD SVG 1.1//EN" "http://www.w3.org/Graphics/SVG/1.1/DTD/svg11.dtd"><svg t="1680490885172" class="icon" viewBox="0 0 1024 1024" version="1.1" xmlns="http://www.w3.org/2000/svg" p-id="5313" xmlns:xlink="http://www.w3.org/1999/xlink" width="200" height="200"><path d="M803.413333 762.069333a384.597333 384.597333 0 0 0 52.373334-78.826666c-70.613333-13.333333-99.989333-64.597333-110.933334-150.933334-0.853333-6.784-1.237333-10.112-2.858666-24.618666-4.992-45.226667-9.536-62.741333-17.664-69.930667-14.506667-12.842667-27.584-17.92-61.717334-25.92l-2.453333-0.576c-59.904-14.08-91.093333-31.253333-121.322667-80.64l-1.770666-3.285333C503.466667 254.506667 534.186667 176.853333 596.330667 137.28A385.322667 385.322667 0 0 0 512 128a32 32 0 0 1 0-64c247.424 0 448 200.576 448 448s-200.576 448-448 448S64 759.424 64 512a32 32 0 0 1 64 0c0 71.466667 19.52 138.389333 53.546667 195.690667 7.978667-8.96 16.512-17.493333 25.877333-25.664 43.861333-38.293333 97.130667-61.226667 161.002667-61.226667 70.208 0 112.277333 22.186667 164.394666 74.069333 1.493333 1.493333 25.856 26.24 33.216 33.365334a342.613333 342.613333 0 0 0 38.613334 32.853333c59.2 42.666667 147.008 38.08 198.784 0.981333z m-118.272 92.778667c-41.557333-3.136-82.88-16.597333-117.909333-41.813333a404.629333 404.629333 0 0 1-45.696-38.826667c-8.021333-7.744-32.853333-32.96-33.877333-33.984-41.194667-41.002667-68.522667-55.424-119.232-55.424-47.189333 0-86.016 16.725333-118.912 45.44a235.669333 235.669333 0 0 0-29.546667 31.125333A383.146667 383.146667 0 0 0 512 896c62.293333 0 121.130667-14.826667 173.141333-41.173333z m194.88-232.853333C890.410667 587.157333 896 550.229333 896 512c0-145.92-81.386667-272.810667-201.237333-337.792-1.898667 0.341333-3.861333 0.533333-5.866667 0.533333-72.021333 0-120.106667 65.408-94.442667 124.117334 19.072 30.506667 36.266667 39.744 80.384 50.112l2.410667 0.576c43.904 10.304 64.746667 18.346667 89.514667 40.298666 25.344 22.442667 31.850667 47.594667 38.848 110.805334 1.557333 14.122667 1.92 17.28 2.730666 23.594666 8.384 66.218667 23.978667 93.12 71.68 97.749334zM416 405.333333c-35.968 38.677333-67.626667 69.333333-94.954667 92.032a64 64 0 0 1-82.304-0.469333C212.074667 474.24 180.906667 443.733333 145.173333 405.333333c-83.861333-90.154667-74.794667-196.053333 0-270.826666a191.509333 191.509333 0 0 1 270.826667 0c74.794667 74.794667 83.861333 180.693333 0 270.826666zM370.752 179.754667a127.509333 127.509333 0 0 0-180.330667 0c-53.888 53.909333-55.488 120.597333 1.621334 181.973333 34.133333 36.714667 63.616 65.557333 88.128 86.378667 24.96-20.736 54.741333-49.557333 88.96-86.357334 57.109333-61.397333 55.509333-128.085333 1.621333-181.973333z" fill="#ffffff" p-id="5314"></path><path d="M277.333333 320a42.666667 42.666667 0 1 0 0-85.333333 42.666667 42.666667 0 0 0 0 85.333333z" fill="#ffffff" p-id="5315"></path></svg>